<svg width="112" height="111" viewBox="0 0 112 111" fill="none" xmlns="http://www.w3.org/2000/svg">
<path d="M103.565 27.7498C98.6928 19.3133 91.6858 12.3078 83.248 7.43708C74.8101 2.56639 65.2388 0.00219727 55.4957 0.00219727C45.7527 0.00219727 36.1813 2.56639 27.7435 7.43708C19.3056 12.3078 12.2986 19.3133 7.4267 27.7498L10.7571 87.6898L103.565 27.7498Z" fill="url(#paint0_linear_101_93)"/>
<path d="M31.4723 69.3747L7.4378 27.7498C2.56611 36.1867 0.00134362 45.7572 0.00128174 55.4994C0.00121986 65.2416 2.56587 74.8121 7.43745 83.2491C12.309 91.6862 19.3159 98.6924 27.7538 103.564C36.1918 108.435 45.7634 111 55.5068 111L109.904 55.4997L31.4723 69.3747Z" fill="url(#paint1_linear_101_93)"/>
<path d="M79.5413 69.3747L55.5068 111C65.2493 110.998 74.8195 108.432 83.2559 103.559C91.6923 98.6874 98.6976 91.681 103.568 83.2443C108.438 74.8076 111.002 65.2378 111.001 55.4966C111.001 45.7554 108.436 36.1859 103.565 27.7498H55.5068L79.5413 69.3747Z" fill="url(#paint2_linear_101_93)"/>
<path d="M55.5068 83.2498C59.1515 83.2498 62.7604 82.532 66.1276 81.1374C69.4948 79.7428 72.5544 77.6988 75.1315 75.122C77.7087 72.5451 79.753 69.486 81.1477 66.1192C82.5424 62.7524 83.2603 59.1439 83.2603 55.4997C83.2603 51.8556 82.5424 48.2471 81.1477 44.8803C79.753 41.5135 77.7087 38.4544 75.1315 35.8775C72.5544 33.3007 69.4948 31.2567 66.1276 29.8621C62.7604 28.4675 59.1515 27.7498 55.5068 27.7498C48.1461 27.7498 41.0869 30.6734 35.8822 35.8775C30.6774 41.0817 27.7533 48.14 27.7533 55.4997C27.7533 62.8595 30.6774 69.9178 35.8822 75.122C41.0869 80.3261 48.1461 83.2498 55.5068 83.2498Z" fill="white"/>
<path d="M55.5068 77.4778C58.3934 77.4778 61.2517 76.9093 63.9185 75.8048C66.5853 74.7003 69.0085 73.0814 71.0496 71.0405C73.0907 68.9997 74.7098 66.5769 75.8144 63.9104C76.919 61.2439 77.4876 58.3859 77.4876 55.4997C77.4876 52.6136 76.919 49.7556 75.8144 47.0891C74.7098 44.4226 73.0907 41.9998 71.0496 39.959C69.0085 37.9181 66.5853 36.2992 63.9185 35.1947C61.2517 34.0902 58.3934 33.5218 55.5068 33.5218C49.6772 33.5218 44.0863 35.8373 39.9641 39.959C35.8419 44.0806 33.5261 49.6708 33.5261 55.4997C33.5261 61.3287 35.8419 66.9189 39.9641 71.0405C44.0863 75.1622 49.6772 77.4778 55.5068 77.4778Z" fill="#1A73E8"/>
<path fill-rule="evenodd" clip-rule="evenodd" d="M55.2099 10L74.3272 20.7025V28.3437L92.8928 37.6981V54.9597L100 58.9386V80.6104L80.8828 91.3123L76.3918 88.7986L55.1735 101L34.5717 88.8189L30.1172 91.3123L11 80.6104V58.9386L17.527 55.2845V37.6981L36.0926 28.3437V20.7025L55.2099 10ZM86.0758 76.5099L89.6136 74.5292V70.8343L86.0758 72.8149V76.5099ZM36.0926 39.9663L27.9131 44.0875V49.47L30.1173 48.236L49.2346 58.9386V80.6103L45.0477 82.9543L55.2463 88.9843L65.841 82.892L61.7654 80.6103V58.9386L80.8828 48.236L82.5065 49.1451V44.0875L74.3272 39.9663V42.3743L55.2099 53.0768L36.0926 42.3743V39.9663ZM58.5099 23.7431L55.2099 21.8956L51.9099 23.7431L55.2099 25.5906L58.5099 23.7431ZM46.4788 32.5983V36.2932L50.0169 38.2739V34.579L46.4788 32.5983ZM63.9411 36.2932V32.5983L60.403 34.579V38.2739L63.9411 36.2932ZM72.1515 74.5292L75.6896 76.5099V72.815L72.1515 70.8342V74.5292ZM80.8827 63.8266L84.1827 61.9791L80.8827 60.1316L77.5827 61.9791L80.8827 63.8266ZM21.3861 70.8342V74.5292L24.9242 76.5099V72.815L21.3861 70.8342ZM30.1173 60.1316L26.8173 61.9791L30.1173 63.8266L33.4173 61.9791L30.1173 60.1316ZM35.3104 72.815V76.5099L38.8485 74.5292V70.8342L35.3104 72.815Z" fill="white"/>
<path fill-rule="evenodd" clip-rule="evenodd" d="M55.2122 14L70.5346 22.5905V30.2892L88.9503 39.5815V56.6203L96 60.5728V77.8287L80.6776 86.4188L76.1988 83.9082L55.2017 96L34.7906 83.9141L30.3224 86.4188L15 77.8287V60.5728L21.4743 56.943V39.5815L39.8898 30.2892V22.5905L55.2122 14ZM39.8898 33.6723L24.4956 41.44V55.2491L30.3224 51.9823L45.6448 60.5728V77.8287L37.8355 82.207L55.2229 92.5023L73.1322 82.1888L65.3552 77.8287V60.5728L80.6776 51.9823L85.9287 54.9265V41.44L70.5346 33.6723V39.8464L55.2122 48.4369L39.8898 39.8464V33.6723ZM42.9112 26.0532L53.7016 32.1029V44.1273L42.9112 38.0777V26.0532ZM56.7229 44.1273L67.5133 38.0777V26.0532L56.7229 32.1029V44.1273ZM55.2122 29.4872L65.936 23.4749L55.2122 17.4626L44.4886 23.4749L55.2122 29.4872ZM18.0213 64.0354L28.8117 70.0851V82.1097L18.0213 76.06V64.0354ZM31.8331 82.1097L42.6235 76.06V64.0354L31.8331 70.0851V82.1097ZM30.3224 67.4695L41.0461 61.4571L30.3224 55.4449L19.5987 61.4571L30.3224 67.4695ZM68.3765 64.0354L79.1669 70.0851V82.1097L68.3765 76.06V64.0354ZM82.1883 82.1097L92.9784 76.06V64.0354L82.1883 70.0851V82.1097ZM80.6776 67.4695L91.4012 61.4571L80.6776 55.4449L69.954 61.4571L80.6776 67.4695Z" fill="black"/>
<path fill-rule="evenodd" clip-rule="evenodd" d="M55.2122 12.8536L71.5346 22.0047V29.6737L89.9503 38.966V56.0345L97 59.987V78.4145L80.6777 87.5652L76.2054 85.0583L55.1947 97.158L34.7769 85.0682L30.3223 87.5652L14 78.4145V59.987L20.4743 56.3572V38.966L38.8898 29.6737V22.0047L55.2122 12.8536ZM39.8898 30.2892L21.4743 39.5815V56.943L15 60.5728V77.8287L30.3224 86.4188L34.7906 83.9141L55.2017 96L76.1988 83.9082L80.6776 86.4188L96 77.8287V60.5728L88.9503 56.6203V39.5815L70.5346 30.2892V22.5905L55.2122 14L39.8898 22.5905V30.2892ZM30.3224 50.8359L46.6448 59.987V78.4145L39.8382 82.2306L55.2299 91.3442L71.1081 82.2005L64.3552 78.4145V59.987L80.6776 50.8359L84.9287 53.2193V42.0555L71.5346 35.2969V40.4322L55.2122 49.5833L38.8898 40.4322V35.2969L25.4956 42.0555V53.542L30.3224 50.8359ZM24.4956 55.2491V41.44L39.8898 33.6723V39.8464L55.2122 48.4369L70.5346 39.8464V33.6723L85.9287 41.44V54.9265L80.6776 51.9823L65.3552 60.5728V77.8287L73.1322 82.1888L55.2229 92.5023L37.8355 82.207L45.6448 77.8287V60.5728L30.3224 51.9823L24.4956 55.2491ZM42.9112 26.0532V38.0777L53.7016 44.1273V32.1029L42.9112 26.0532ZM43.9112 27.7603V37.4919L52.7016 42.4202V32.6887L43.9112 27.7603ZM66.5133 37.4919L57.7229 42.4202V32.6887L66.5133 27.7603V37.4919ZM67.5133 26.0532V38.0777L56.7229 44.1273V32.1029L67.5133 26.0532ZM65.936 23.4749L55.2122 17.4626L44.4886 23.4749L55.2122 29.4872L65.936 23.4749ZM63.8911 23.4749L55.2122 18.609L46.5334 23.4749L55.2122 28.3407L63.8911 23.4749ZM18.0213 64.0354V76.06L28.8117 82.1097V70.0851L18.0213 64.0354ZM19.0213 65.7425V75.4742L27.8117 80.4026V70.6709L19.0213 65.7425ZM41.6235 75.4742L32.8331 80.4026V70.6709L41.6235 65.7425V75.4742ZM42.6235 64.0354V76.06L31.8331 82.1097V70.0851L42.6235 64.0354ZM41.0461 61.4571L30.3224 55.4449L19.5987 61.4571L30.3224 67.4695L41.0461 61.4571ZM39.0012 61.4571L30.3224 56.5913L21.6435 61.4571L30.3224 66.323L39.0012 61.4571ZM68.3765 64.0354V76.06L79.1669 82.1097V70.0851L68.3765 64.0354ZM69.3765 65.7425V75.4742L78.1669 80.4026V70.6709L69.3765 65.7425ZM91.9784 75.4742L83.1883 80.4025V70.6709L91.9784 65.7425V75.4742ZM92.9784 64.0354V76.06L82.1883 82.1097V70.0851L92.9784 64.0354ZM91.4012 61.4571L80.6776 55.4449L69.954 61.4571L80.6776 67.4695L91.4012 61.4571ZM89.3564 61.4571L80.6776 56.5913L71.9988 61.4571L80.6776 66.323L89.3564 61.4571Z" fill="black"/>
<defs>
<linearGradient id="paint0_linear_101_93" x1="0.0140993" y1="43.9076" x2="111.001" y2="43.9076" gradientUnits="userSpaceOnUse">
<stop stop-color="#D93025"/>
<stop offset="1" stop-color="#EA4335"/>
</linearGradient>
<linearGradient id="paint1_linear_101_93" x1="62.127" y1="106.367" x2="-9.21982" y2="12.743" gradientUnits="userSpaceOnUse">
<stop stop-color="#1E8E3E"/>
<stop offset="1" stop-color="#34A853"/>
</linearGradient>
<linearGradient id="paint2_linear_101_93" x1="-16.2084" y1="111" x2="33.4153" y2="-17.7386" gradientUnits="userSpaceOnUse">
<stop stop-color="#FCC934"/>
<stop offset="1" stop-color="#FBBC04"/>
</linearGradient>
</defs>
</svg>
